# xmcd
#
# Track frame offsets:
#  150
#  17232
#  39014
#  52671
#  68162
#  83260
#  98746
#  113285
#  127170
#  146168
#  164866
#  183565
#
# Disc length: 2607 seconds
#
# Revision: 0
# Processed by: cddbd v1.5.1PL2 Copyright (c) Steve Scherf et al.
# Submitted via: Collectorz.com_Music_Collector 6.11
#
DISCID=950a2d0c
DTITLE=Anton Walgrave - Shine
DYEAR=2006
DGENRE=Pop
TTITLE0=Lost Soul
TTITLE1=Shine
TTITLE2=In The Middle Of Something
TTITLE3=Hey Now
TTITLE4=Let Me Love You Again
TTITLE5=Darling You´re A Fool
TTITLE6=Say
TTITLE7=Lover
TTITLE8=Turn Around And Run
TTITLE9=Fly
TTITLE10=Let It Rain
TTITLE11=Come Right In
EXTD=
EXTT0=
EXTT1=
EXTT2=
EXTT3=
EXTT4=
EXTT5=
EXTT6=
EXTT7=
EXTT8=
EXTT9=
EXTT10=
EXTT11=
PLAYORDER=
